# xmcd
#
# Track frame offsets: 
#        150
#        15713
#        37198
#        62324
#        77031
#        114397
#        126207
#        142480
#        155231
#        170569
#        182168
#        192932
#        213972
#        229631
#        245570
#
# Disc length: 3427 seconds
#
# Revision: 1
# Processed by: cddbd v1.5.2PL0 Copyright (c) Steve Scherf et al.
# Submitted via: ExactAudioCopyFreeDBPlugin 1.0
#
DISCID=d80d610f
DTITLE=The Fins - Bluesprint
DYEAR=1997
DGENRE=Blues
TTITLE0=You Upset Me Baby
TTITLE1=Two Bones And A Pick
TTITLE2=Fast Food Annie
TTITLE3=Lets Have A Natural Ball
TTITLE4=I Love The Woman
TTITLE5=Peter Gunn
TTITLE6=On My Way
TTITLE7=Hot Rod
TTITLE8=I Got The Feelin'
TTITLE9=Strollin' With Bone
TTITLE10=$100 Bill
TTITLE11=Frosty
TTITLE12=It Should Have Been Me
TTITLE13=Low Rider
TTITLE14=Okie Dokie Stomp
EXTD=
EXTT0=
EXTT1=
EXTT2=
EXTT3=
EXTT4=
EXTT5=
EXTT6=
EXTT7=
EXTT8=
EXTT9=
EXTT10=
EXTT11=
EXTT12=
EXTT13=
EXTT14=
PLAYORDER=
